<?xml version="1.0" encoding="UTF-8"?>
<svg id="Capa_2" data-name="Capa 2" xmlns="http://www.w3.org/2000/svg" viewBox="0 0 229.2 163.39">
  <defs>
    <style>
      .cls-1 {
        fill: #fff;
        stroke-width: 0px;
      }
    </style>
  </defs>
  <g id="Web_BioFrescura" data-name="Web BioFrescura">
    <g>
      <path class="cls-1" d="m148.53,97.86c-7.43-3.32-12.97-8.4-16.63-15.24-3.67-6.84-5.18-14.63-4.56-23.38.63-8.75,3.3-17.09,8.02-25.02,4.72-7.93,11.11-14.64,19.16-20.11,8.06-5.47,17.11-8.89,27.15-10.26,10.04-1.37,18.75-.37,26.13,3.01,7.38,3.37,12.92,8.47,16.63,15.3,3.71,6.83,5.25,14.58,4.64,23.23-.63,8.75-3.32,17.11-8.09,25.1-4.77,7.99-11.16,14.69-19.16,20.11-8.01,5.42-17.03,8.81-27.08,10.18-10.04,1.37-18.78.39-26.21-2.93m38.54-30.7c3.03-2.18,5.43-4.83,7.21-7.94,1.77-3.11,2.78-6.28,3.01-9.49.23-3.21-.34-6.16-1.69-8.85-1.36-2.69-3.43-4.72-6.2-6.12-2.78-1.39-6.05-1.83-9.83-1.31-3.78.52-7.18,1.86-10.21,4.04-3.03,2.18-5.43,4.83-7.21,7.94-1.78,3.12-2.78,6.28-3.01,9.49-.23,3.21.33,6.16,1.69,8.85,1.36,2.69,3.43,4.73,6.2,6.12,2.77,1.39,6.05,1.83,9.83,1.31,3.78-.51,7.18-1.86,10.21-4.04"/>
      <path class="cls-1" d="m130.7,16.29c.74-10.35-7.32-17.55-18-16.1-10.68,1.46-19.94,11.02-20.68,21.36-.74,10.35,7.32,17.55,18,16.1,10.68-1.45,19.94-11.02,20.68-21.36"/>
      <path class="cls-1" d="m94.45,47.59l-4.6,63.16,30.55-4.16,5.41-72.41c-7.06,10.03-22.77,15.05-31.35,13.4"/>
      <path class="cls-1" d="m85.48,72.12c-2.46-3.75-6.14-6.31-11.02-7.69,7.13-5.98,10.99-13.09,11.58-21.34.34-4.78-.5-9.02-2.54-12.74-2.03-3.71-5.28-6.47-9.75-8.28-4.47-1.8-10.04-2.25-16.71-1.34l-46.86,6.38L3.14,125.5l51.22-6.97c6.67-.91,12.54-2.96,17.61-6.15,5.06-3.2,9.01-7.07,11.82-11.63,2.82-4.56,4.4-9.32,4.76-14.29.42-5.81-.61-10.59-3.07-14.33Zm-44.25-27.25l2.19-.28c4.61-.59,10.53-1.82,10.05,4.76-.44,6.1-5.67,7.24-10.28,7.84l-2.89.37.92-12.68Zm12.91,41.01c-.53,7.28-8.03,8.36-13.22,9.03l-3.58.46,1.06-14.68,3.12-.4c5.07-.66,13.16-1.81,12.62,5.58Z"/>
      <polygon class="cls-1" points="18.55 145.25 19.03 138.94 1.69 141.34 0 163.39 6.92 162.44 7.48 155.22 17.15 153.89 17.59 148.15 7.92 149.49 8.13 146.68 18.55 145.25"/>
      <path class="cls-1" d="m30.82,137.32l-10.12,1.4-1.69,22.06,6.92-.96.48-6.3,1.48-.2,3.42,5.76,7.9-1.09-4.25-6.83c2.61-1.64,4.35-4.09,4.6-7.31v-.06c.18-2.27-.35-3.82-1.49-4.97-1.33-1.34-3.59-2-7.26-1.49m1.81,8.01c-.1,1.36-1.17,2.28-2.83,2.51l-2.99.41.33-4.32,3.02-.42c1.6-.22,2.58.33,2.47,1.75v.06Z"/>
      <polygon class="cls-1" points="47.26 150.89 47.45 148.49 57.57 147.09 57.98 141.77 47.86 143.17 48.03 140.93 58.89 139.43 59.35 133.38 41.69 135.82 39.99 157.87 57.81 155.42 58.27 149.37 47.26 150.89"/>
      <path class="cls-1" d="m70,139.64c-2.16-.14-2.69-.44-2.64-1.04v-.06c.05-.54.55-.98,1.58-1.12,1.92-.27,4.21.07,6.05,1.32l3.76-5.44c-2.24-1.69-5.12-2.29-9.12-1.73-5.71.79-9.04,4.46-9.36,8.65v.06c-.36,4.66,3.61,5.52,8.18,5.88,2.18.17,2.81.42,2.76,1.05v.06c-.05.6-.61,1.02-1.85,1.19-2.43.34-4.94-.07-7.05-1.58l-4.06,5.2c2.45,2.09,6.13,2.83,10.34,2.25,5.56-.77,9.36-4.1,9.71-8.73v-.06c.35-4.44-3.08-5.59-8.29-5.9"/>
      <path class="cls-1" d="m85.75,140.59c.2-2.65,1.91-5.03,4.25-5.36,1.89-.26,2.9.69,3.55,2.16l5.98-4.35c-1.49-3.13-4.38-5.07-8.94-4.44-6.18.85-11.38,6.43-11.89,13.02v.06c-.53,6.84,4.12,10.75,9.86,9.96,5.15-.71,8.25-3.79,10.25-7.31l-5.45-2.65c-.98,1.76-2.17,3.04-4.12,3.31-2.28.31-3.72-1.48-3.5-4.35v-.06Z"/>
      <path class="cls-1" d="m114.27,125.8l-.94,12.22c-.21,2.68-1.62,3.93-3.48,4.19-1.86.26-3.11-.72-2.9-3.47l.93-12.07-7.04.97-.93,12.16c-.56,7.31,3.2,9.78,9.39,8.93,6.18-.85,10.52-4.38,11.1-11.91l.92-12-7.04.97Z"/>
      <path class="cls-1" d="m156.32,119.84l-6.86.95-9.31,20.89-2.89-4.65c2.61-1.64,4.35-4.09,4.6-7.31v-.06c.18-2.27-.35-3.82-1.49-4.97-1.33-1.34-3.59-2-7.26-1.49l-10.12,1.4-1.69,22.05,6.92-.96.48-6.3,1.48-.2,3.42,5.76,5.42-.75,7.4-1.02,1.29-3.11,7.25-1,.87,2.81,7.52-1.04-7.02-21.01Zm-21.4,11.37c-.1,1.36-1.17,2.28-2.83,2.51l-2.99.41.33-4.32,3.02-.42c1.6-.22,2.58.33,2.47,1.75v.06Zm14.94,3.39l2.3-5.62,1.48,5.1-3.79.52Z"/>
      <path class="cls-1" d="m166.46,118.16h2.29c.76,0,1.24.53,1.24,1.17,0,.5-.2.87-.67,1.06h0c.46.13.59.58.62,1,.02.27.01.77.18,1h-.93c-.11-.27-.1-.68-.15-1.02-.06-.45-.24-.64-.71-.64h-.93v1.66h-.93v-4.24Zm.93,1.92h1.02c.42,0,.64-.18.64-.61s-.23-.59-.64-.59h-1.02v1.19Z"/>
      <path class="cls-1" d="m168.13,124.26c-2.19,0-3.97-1.78-3.97-3.97s1.78-3.97,3.97-3.97,3.97,1.78,3.97,3.97-1.78,3.97-3.97,3.97m0-7.3c-1.84,0-3.33,1.49-3.33,3.33s1.49,3.33,3.33,3.33,3.33-1.5,3.33-3.33-1.49-3.33-3.33-3.33"/>
    </g>
  </g>
</svg>