<?xml version="1.0" encoding="UTF-8"?>
<svg id="Capa_2" data-name="Capa 2" xmlns="http://www.w3.org/2000/svg" viewBox="0 0 408.26 110.65">
  <defs>
    <style>
      .cls-1 {
        fill: none;
        stroke: #008700;
        stroke-miterlimit: 10;
        stroke-width: .87px;
      }

      .cls-2 {
        fill: #008700;
        stroke-width: 0px;
      }
    </style>
  </defs>
  <g id="Web_BioFrescura" data-name="Web BioFrescura">
    <g id="Interna_de_productos" data-name="Interna de productos">
      <g>
        <g>
          <path class="cls-2" d="m68.63,63.07c-.14,3.88-.86,7.61-2.58,11.1-2.23,4.55-5.62,7.89-10.48,9.52-8.39,2.83-18.01-.65-22.55-8.88-1.87-3.39-2.6-7.03-2.28-10.87.22-2.67,1.11-5.15,2.38-7.5,1.16-2.13,2.57-4.08,4.06-5.99,2.01-2.59,4.02-5.19,5.78-7.96,2.1-3.3,3.81-6.78,4.76-10.6.08-.33.15-.67.24-1,.31-1.16.88-1.36,1.82-.63.39.31.76.65,1.13.99,3.45,3.22,6.39,6.86,8.97,10.81,2.79,4.28,5.26,8.74,7.11,13.52.64,1.66,1.22,3.34,1.47,5.11.11.78.13,1.58.18,2.38Zm-22.97,1.87c-.01,2.31,1.72,4.07,4.03,4.08,2.23.01,4.09-1.85,4.08-4.08,0-2.19-1.83-3.98-4.09-3.99-2.29-.02-4.01,1.7-4.02,4Zm-1.56-8.06c-1.4-.01-2.54,1.11-2.55,2.48-.01,1.48.9,2.54,2.56,2.61,1.47.06,2.55-1.06,2.57-2.53.02-1.53-1.01-2.55-2.58-2.56Zm.28,8.08c.01-1.53-1-2.53-2.58-2.56-1.51-.02-2.52,1.02-2.52,2.6,0,1.39,1.05,2.45,2.46,2.48,1.52.03,2.62-1.02,2.63-2.52Zm5.29,10.4c1.49-.01,2.66-1.16,2.62-2.57-.04-1.42-1.22-2.51-2.71-2.51-1.33,0-2.47,1.16-2.46,2.49.01,1.57,1.02,2.59,2.55,2.58Zm5.34-10.48c-.02,1.57.95,2.56,2.53,2.58,1.47.01,2.58-1.06,2.58-2.5,0-1.42-1.06-2.52-2.47-2.56-1.57-.04-2.62.94-2.64,2.48Zm-13.48,5.56c-.02,1.49,1.07,2.61,2.56,2.64,1.46.03,2.58-1.06,2.59-2.51,0-1.51-.97-2.5-2.53-2.55-1.41-.04-2.61,1.07-2.63,2.42Zm13.71-8.51c1.59,0,2.54-.95,2.53-2.55,0-1.53-.97-2.48-2.54-2.48-1.46,0-2.61,1.1-2.54,2.53.08,1.47.89,2.54,2.55,2.5Zm0,6.1c-1.55,0-2.53.97-2.55,2.51-.02,1.53.97,2.5,2.53,2.51,1.51,0,2.57-1.02,2.58-2.5.01-1.46-1.07-2.52-2.57-2.52Zm-3.03-10.91c0-1.57-.92-2.5-2.5-2.51-1.59-.01-2.52.91-2.55,2.48-.03,1.82,1.28,2.52,2.51,2.56,1.51.05,2.53-1,2.54-2.52Zm-.86-5.46c0-.96-.79-1.72-1.75-1.71-.92.02-1.69.78-1.7,1.7-.01.94.78,1.75,1.73,1.75.95,0,1.73-.79,1.72-1.74Zm0,26.73c0-.95-.79-1.75-1.73-1.74-.91,0-1.69.78-1.72,1.7-.03.95.75,1.74,1.71,1.75.97.01,1.74-.74,1.74-1.71Zm-12.63-3.34c0,.95.79,1.74,1.74,1.73.92,0,1.69-.77,1.71-1.7.02-.95-.76-1.75-1.71-1.76-.96,0-1.74.76-1.74,1.72Zm24.25-8.3c.95.01,1.75-.77,1.76-1.72,0-.92-.75-1.69-1.68-1.71-.98-.02-1.76.71-1.78,1.67-.02.97.73,1.74,1.7,1.76Zm-5.04,7.49c.02.95.83,1.73,1.77,1.7.97-.03,1.68-.81,1.66-1.79-.02-.94-.77-1.66-1.72-1.65-.96,0-1.73.79-1.71,1.75Zm-18.32-20.12c-.96,0-1.73.77-1.72,1.74,0,.94.74,1.68,1.68,1.69.97.01,1.76-.73,1.77-1.69.01-.94-.78-1.74-1.73-1.74Zm-1.63,11.74c0-.98-.74-1.72-1.73-1.71-.94,0-1.68.73-1.7,1.68-.02.95.75,1.75,1.7,1.77.95.01,1.72-.76,1.73-1.73Zm21.71-9.14c.97-.01,1.69-.77,1.67-1.76-.02-.94-.77-1.68-1.7-1.68-.95,0-1.73.79-1.72,1.74,0,.97.78,1.71,1.75,1.7Z"/>
          <path class="cls-2" d="m324.8,55.19h-4.67v-14.53c-.07-.01-.14-.03-.21-.04-.11.24-.23.48-.33.73-1.65,4.26-3.31,8.51-4.96,12.77-.05.13-.1.27-.15.4-.29.73-.29.73-1.04.74-.71,0-1.43,0-2.14,0-.76,0-.76,0-1.04-.73-1.04-2.69-2.07-5.38-3.11-8.07-.66-1.7-1.32-3.41-1.98-5.11-.09-.23-.2-.46-.38-.68-.17,2.4-.11,4.8-.12,7.19-.01,2.42,0,4.84,0,7.33h-4.69v-20.79c.3-.02.57-.06.85-.06,1.57,0,3.14,0,4.71,0,.86,0,.87,0,1.17.79,1.73,4.47,3.46,8.94,5.19,13.41.12.32.26.62.47,1.13.2-.47.35-.76.46-1.07,1.71-4.45,3.41-8.9,5.12-13.35.37-.97.22-.91,1.34-.92,1.51,0,3.03,0,4.54,0,.31,0,.61.03.97.05v20.81Z"/>
          <path class="cls-2" d="m170.12,34.39c.33-.02.61-.05.89-.05,3.08,0,6.17-.02,9.25,0,1.5,0,2.96.27,4.3,1,1.5.82,2.56,1.98,2.91,3.71.44,2.2-.39,4.09-2.32,5.24-.09.05-.16.12-.32.24.26.14.45.25.65.35,1.64.85,2.49,2.24,2.64,4.04.21,2.48-.87,4.29-3.11,5.4-1.33.66-2.77.91-4.23.93-3.31.03-6.63.01-9.94,0-.22,0-.44-.05-.71-.08v-20.78Zm4.82,11.88c-.01,1.81-.03,3.53,0,5.26,1.91,0,3.7.03,5.48-.02.49-.02,1-.24,1.44-.48,1.81-.99,1.84-3.25.04-4.25-.58-.32-1.28-.52-1.94-.56-1.5-.08-3.02-.04-4.53-.04-.14,0-.27.04-.51.08Zm.05-8.28v4.8c.13.05.21.09.29.09,1.57,0,3.14.05,4.7-.05.59-.04,1.23-.3,1.73-.64,1.27-.87,1.26-2.54.03-3.48-.63-.48-1.37-.69-2.16-.71-.77-.02-1.54-.01-2.31-.02-.74,0-1.47,0-2.28,0Z"/>
          <path class="cls-2" d="m133.59,44.81c-.04,3.87-1.44,7.07-4.76,9.24-2.33,1.52-4.95,2-7.69,1.85-1.61-.09-3.17-.41-4.63-1.12-3.59-1.73-5.54-4.62-6.01-8.55-.19-1.58-.08-3.14.34-4.66.97-3.5,3.18-5.89,6.58-7.12,3.06-1.11,6.16-1.09,9.23,0,4.07,1.46,6.73,5.1,6.94,9.42.02.31,0,.63,0,.94Zm-4.77-.04c-.09-3.69-2.23-6.34-5.72-6.88-3.4-.52-6.65,1.26-7.57,4.88-.29,1.15-.32,2.3-.12,3.48.53,3.1,2.98,5.32,6.12,5.49,3.33.19,6.03-1.63,6.9-4.71.21-.73.26-1.51.39-2.27Z"/>
          <path class="cls-2" d="m212.93,55.97c-1.92-.08-3.48-.26-4.96-.83-4.23-1.65-6.47-4.8-6.9-9.26-.17-1.69,0-3.37.57-4.98,1.01-2.91,2.93-5.03,5.77-6.2,3.51-1.45,7.09-1.47,10.57.07,3.7,1.65,5.68,4.62,6.17,8.62.21,1.7.08,3.37-.44,4.99-1.28,4.01-4.1,6.34-8.15,7.25-.97.22-1.98.27-2.63.35Zm-.27-18.15c-3.14,0-5.66,1.81-6.45,4.75-.23.87-.3,1.81-.28,2.71.1,3.43,2.33,5.95,5.72,6.43,2.84.4,5.87-.81,7.14-3.96.26-.65.44-1.37.51-2.07.45-4.14-2.1-7.81-6.65-7.86Z"/>
          <path class="cls-2" d="m265.51,55.19c-.33.02-.61.05-.89.05-1.23,0-2.46-.03-3.68.02-.63.02-.97-.2-1.28-.74-2.43-4.4-4.89-8.78-7.34-13.16-.15-.27-.31-.53-.5-.84-.3.32-.2.64-.2.93,0,4.23,0,8.45,0,12.68v1.06h-4.43c-.19-.67-.23-19.83-.04-20.78.2-.03.42-.08.63-.08,1.34,0,2.69.02,4.03-.02.54-.01.82.2,1.07.65,1.89,3.43,3.79,6.84,5.69,10.26.61,1.1,1.22,2.2,1.83,3.29.09.17.21.32.39.47.19-.95.11-1.9.12-2.85.01-.97,0-1.94,0-2.91v-8.82c1.56-.15,3.05-.08,4.59-.05v20.83Z"/>
          <path class="cls-2" d="m142.19,40.61v14.57c-1.56.11-3.03.08-4.55.02v-20.82c.31-.02.59-.05.86-.05,1.23,0,2.46.03,3.68-.02.62-.02.97.19,1.27.74,2.42,4.4,4.87,8.79,7.31,13.18.15.27.31.54.45.78.1-.02.12-.02.15-.03.02,0,.06-.03.06-.05,0-4.82,0-9.64,0-14.58,1.59-.07,3.08-.05,4.6,0v20.82c-.3.02-.57.06-.84.06-1.26,0-2.51-.03-3.77.02-.59.02-.92-.19-1.21-.71-2.43-4.4-4.89-8.78-7.34-13.16-.16-.29-.34-.56-.51-.84l-.18.06Z"/>
          <path class="cls-2" d="m350.67,48.49h4.32c.06.26.1.48.16.69.23.86.68,1.58,1.42,2.07,1.83,1.2,3.78,1.35,5.79.51.31-.13.59-.35.84-.57.9-.8,1.25-2.63-.47-3.4-.92-.42-1.94-.64-2.94-.88-1.36-.32-2.74-.55-4.1-.87-.58-.13-1.15-.36-1.69-.6-2.5-1.12-3.45-3.21-3.06-5.88.34-2.31,1.67-3.93,3.74-4.88,3.13-1.43,6.32-1.44,9.44.01,2.02.94,3.38,2.51,3.89,4.72.1.43.1.89.14,1.39h-4.07c-.06-.17-.14-.35-.18-.53-.21-1.09-.84-1.87-1.81-2.36-1.63-.82-3.29-.83-4.96-.11-.53.23-.97.6-1.26,1.12-.52.94-.34,1.92.57,2.47.57.35,1.24.6,1.89.75,1.44.34,2.92.53,4.36.88,1.05.26,2.1.57,3.07,1.03,1.91.89,2.84,2.45,2.88,4.58.05,2.81-1.26,4.8-3.66,6.1-1.8.98-3.78,1.26-5.8,1.16-1.44-.07-2.83-.35-4.14-.99-2.26-1.1-3.81-2.78-4.29-5.32-.06-.33-.06-.67-.1-1.11Z"/>
          <path class="cls-2" d="m349.01,55.25c-.41,0-.72,0-1.02,0-1.06,0-2.11,0-3.17,0-.84,0-.85,0-1.12-.83-.23-.7-.46-1.41-.69-2.11-.09-.27-.19-.53-.3-.83h-8.48c-.23.7-.46,1.4-.68,2.1-.13.41-.27.81-.38,1.22-.08.29-.23.44-.54.44-1.51,0-3.02,0-4.67,0,.48-1.85,1.15-3.53,1.7-5.25.57-1.76,1.18-3.51,1.77-5.27.58-1.73,1.16-3.46,1.74-5.19.58-1.72,1.16-3.45,1.74-5.15.29-.02.49-.05.68-.05,1.91,0,3.83,0,5.74,0,.71,0,.72,0,.96.7,2.19,6.51,4.37,13.03,6.55,19.54.05.16.08.33.15.68Zm-7.28-7.32c-1.04-3.13-2.06-6.16-3.23-9.16-1.15,3.02-2.21,6.03-3.21,9.16h6.44Z"/>
          <path class="cls-2" d="m107.3,41.72c-1.43.16-2.87.32-4.33.49-.1-.22-.18-.4-.25-.58-.89-2.22-2.55-3.51-4.89-3.76-2.35-.26-4.34.56-5.75,2.52-1.78,2.47-1.78,6.32,0,8.79,1.41,1.96,3.39,2.8,5.74,2.54,2.3-.25,3.97-1.49,4.92-3.63.07-.15.15-.31.22-.46.01-.02.04-.04.13-.1,1.38.18,2.81.36,4.34.55-.06.37-.09.67-.17.96-.46,1.67-1.38,3.06-2.68,4.2-4.29,3.78-11.53,3.55-15.55-.51-1.8-1.81-2.76-4.02-3.04-6.55-.27-2.42.08-4.74,1.24-6.88,1.78-3.28,4.6-5.06,8.26-5.54,2.63-.35,5.13.1,7.42,1.46,2.18,1.29,3.67,3.14,4.35,5.6.05.19.09.39.12.59.01.08-.03.16-.07.31Z"/>
          <path class="cls-2" d="m243.09,55.19h-14.85c-.16-1.73-.05-3.47-.07-5.19-.02-1.71,0-3.43,0-5.14v-10.46c1.02-.11,1.99-.04,2.94-.06.97-.01,1.94,0,2.91,0h2.91c.97,0,1.94,0,2.91,0,.96,0,1.93.01,2.91.02v3.88h-9.9c-.03,1.57-.02,3.03,0,4.58h8.72c.08,1.15.05,2.22.02,3.37h-8.56c-.23.67-.29,3.79-.11,5.1.31.02.64.07.97.07,2.71,0,5.43,0,8.14,0,.33,0,.67.03,1.04.06v3.78Z"/>
          <path class="cls-2" d="m279.52,38.15h-9.74c-.12-1.28-.07-2.49-.05-3.67.85-.2,15.55-.19,16.31.01,0,.94.04,1.91-.02,2.87-.02.3-.28.61-.47.88-2.98,4.08-5.98,8.15-8.96,12.22-.18.25-.35.5-.58.82.74.27,1.42.12,2.08.14.68.03,1.37,0,2.06,0h4.03c.68,0,1.36,0,2.02,0,.2.66.24,2.71.07,3.75h-16.84c0-1.03-.03-2.02.02-3,.02-.27.27-.55.45-.8,3.04-4.08,6.08-8.15,9.12-12.22.2-.27.39-.54.59-.82l-.09-.21Z"/>
          <path class="cls-2" d="m236.16,79.88c0-1.72,0-3.45,0-5.17,0-1.74,0-3.48,0-5.23v-5.27h2.06v18.62c-.9,0-1.75.04-2.59-.03-.23-.02-.5-.34-.65-.59-1.2-1.95-2.37-3.91-3.55-5.86-1.71-2.84-3.42-5.67-5.13-8.5-.16-.26-.33-.5-.58-.73-.16,2.6-.11,5.18-.12,7.75,0,2.6,0,5.19,0,7.87-.72.16-1.37.14-2.07,0v-18.51c.89-.15,1.77-.11,2.64-.04.23.02.48.37.63.62,1.48,2.44,2.95,4.89,4.42,7.33,1.43,2.37,2.86,4.74,4.29,7.12.14.23.3.45.45.67.07-.02.13-.03.2-.05Z"/>
          <path class="cls-2" d="m200.84,69.07c-.67.2-1.26.38-1.87.57-.09-.13-.16-.22-.2-.32-1.22-2.82-4.52-4.17-7.3-3.86-4.71.53-7.2,4.31-6.99,8.33.04.82.15,1.66.39,2.44.97,3.19,3.74,5.26,7.07,5.38,1.83.07,3.51-.34,5.01-1.41,1.53-1.1,2.47-2.59,2.85-4.42.08-.38.06-.78.09-1.29h-7.36c-.24-.75-.24-.98-.07-1.82h9.51c.17,1.2.07,2.35-.19,3.49-.94,4.12-4.05,6.84-8.26,7.29-1.56.17-3.08.02-4.56-.46-3.77-1.21-6.36-4.59-6.59-8.55-.09-1.55.04-3.08.57-4.55,1.29-3.61,4.63-6.06,8.51-6.3,2.45-.15,4.71.38,6.7,1.85,1.22.9,2.15,2.03,2.69,3.62Z"/>
          <path class="cls-2" d="m264.17,64.21h2.08v18.54c-.89.17-1.79.11-2.69.03-.2-.02-.42-.36-.56-.59-1.19-1.95-2.37-3.91-3.55-5.86-1.71-2.84-3.42-5.67-5.13-8.51-.16-.26-.33-.51-.6-.93-.23,1.06-.1,1.93-.12,2.79-.02.86,0,1.71,0,2.57v10.52h-2.02v-18.53c.89-.16,1.77-.11,2.64-.04.22.02.46.38.62.63,1.82,3,3.63,6.01,5.44,9.02,1.07,1.79,2.15,3.57,3.23,5.36.14.23.3.45.54.81.21-1.02.09-1.89.11-2.76.02-.86,0-1.71,0-2.57v-10.48Z"/>
          <path class="cls-2" d="m335.17,75.22c1.57,2.53,3.1,4.99,4.72,7.61-.85,0-1.53.05-2.2-.03-.24-.03-.49-.36-.64-.61-1.21-1.97-2.43-3.94-3.58-5.94-.35-.61-.75-.81-1.43-.79-1.65.05-3.31.01-5.06.01-.12.83-.05,1.62-.06,2.41-.01.8,0,1.6,0,2.4s0,1.59,0,2.4c-.7.29-1.34.13-1.96.13-.18-.69-.25-17.03-.09-18.61.23-.02.47-.06.72-.06,2.43,0,4.86-.01,7.29,0,1.33,0,2.62.23,3.81.84,2.28,1.16,3.45,3.45,2.95,5.9-.41,1.99-1.69,3.24-3.54,3.98-.28.11-.57.22-.95.36Zm-8.2-1.75c.14.04.22.09.3.09,2.14,0,4.28.03,6.41-.05.69-.03,1.4-.29,2.03-.6,1.27-.64,1.99-1.7,1.95-3.16-.04-1.44-.77-2.47-2.04-3.13-.83-.43-1.72-.58-2.65-.58-1.77,0-3.54,0-5.3,0-.22,0-.44.04-.7.07v7.35Z"/>
          <path class="cls-2" d="m142.28,83.47c-2.27-.04-4.37-.6-6.2-1.96-2.35-1.74-3.52-4.14-3.77-7.01-.12-1.37-.03-2.74.37-4.07.98-3.17,3.02-5.32,6.2-6.34,2.36-.76,4.74-.72,7.07.08,3.63,1.23,6.09,4.54,6.32,8.39.09,1.46,0,2.91-.48,4.31-1.21,3.53-3.69,5.61-7.31,6.35-.72.15-1.47.17-2.21.25Zm7.88-9.21c0-5.12-2.67-8.23-6.97-8.77-2.9-.37-6.56.81-8.17,4.63-.7,1.65-.82,3.39-.48,5.12,1.22,6.27,8.13,7.78,12.25,5,2.37-1.61,3.34-3.95,3.37-5.98Z"/>
          <path class="cls-2" d="m171.63,82.83c-.87,0-1.55.05-2.22-.03-.21-.02-.44-.32-.58-.55-1.22-2-2.45-3.99-3.62-6.02-.33-.56-.68-.81-1.35-.78-1.43.06-2.86.02-4.28.02-.28,0-.55.03-.9.05v7.16c-.7.27-1.34.14-2.03.11v-18.6c.31-.02.58-.05.86-.05,2.31,0,4.63,0,6.94,0,1.12,0,2.23.11,3.28.52,2.16.85,3.56,2.35,3.77,4.75.25,2.85-1.69,4.7-3.52,5.41-.31.12-.63.23-1.05.39,1.57,2.52,3.08,4.96,4.72,7.61Zm-12.95-9.35c.17.04.25.08.34.08,2.11,0,4.23.04,6.33-.05.71-.03,1.46-.29,2.11-.61,1.24-.62,1.94-1.65,1.92-3.09-.02-1.45-.72-2.49-1.98-3.16-.8-.42-1.66-.6-2.56-.6-1.86,0-3.71,0-5.57,0-.19,0-.38.05-.6.08v7.34Z"/>
          <path class="cls-2" d="m87.08,82.78v-18.53c.17-.04.33-.11.49-.11,2.31.03,4.63.02,6.94.14,1.7.09,3.3.63,4.78,1.5,3.34,1.97,4.64,5.42,4.23,8.89-.49,4.23-3.54,7.02-7.8,7.85-1.03.2-2.1.27-3.15.3-1.51.05-3.03.02-4.54,0-.3,0-.61-.04-.94-.06Zm2.13-16.6v14.68c.15.03.26.07.37.07,1.49,0,2.97.01,4.45-.05,1.12-.05,2.2-.34,3.22-.82,2.78-1.3,4.23-3.48,4.23-6.56,0-3.08-1.44-5.28-4.24-6.56-.69-.32-1.45-.53-2.2-.68-1.86-.37-3.76-.2-5.64-.18-.05,0-.1.05-.2.1Z"/>
          <path class="cls-2" d="m197.16,55.19h-4.76v-20.79h4.76v20.79Z"/>
          <path class="cls-2" d="m290.29,34.39h4.76v20.79h-4.76v-20.79Z"/>
          <path class="cls-2" d="m206.44,64.18h12.58v1.81c-.3.02-.63.06-.96.06-2.86,0-5.71,0-8.57,0-.31,0-.61,0-.98,0v6.26c3.12.04,6.22,0,9.34.02.22.56.17,1.07.04,1.71h-9.38v6.86c.3.02.6.05.9.05,2.94,0,5.88,0,8.83,0,.34,0,.67.03,1.04.05v1.67c-.64.22-11.94.25-12.85.03v-18.53Z"/>
          <path class="cls-2" d="m119.5,72.32v1.65c-.33.03-.65.07-.98.07-2.48,0-4.97,0-7.45,0-.34,0-.67.03-1.06.06v6.79c1.81.11,3.6.03,5.39.05,1.79.01,3.58,0,5.43,0v1.83h-12.83c0-6.19,0-12.34,0-18.49.62-.2,11.71-.22,12.55-.02v1.77h-10.57c-.05,2.11-.02,4.12-.02,6.25,1.11.08,2.15.03,3.19.04,1.03,0,2.06,0,3.08,0s2.11,0,3.26,0Z"/>
          <path class="cls-2" d="m276.73,64.15c.86,0,1.71.01,2.57,0,.45,0,.57.27.7.61.7,1.9,1.41,3.8,2.12,5.69,1.42,3.82,2.85,7.64,4.27,11.46.1.26.18.52.31.91-.71,0-1.33.04-1.94-.02-.17-.02-.38-.31-.47-.52-.39-1.01-.74-2.03-1.11-3.05-.3-.83-.3-.83-1.13-.83-2.57,0-5.14,0-7.71,0-.25,0-.51,0-.82,0-.23.63-.44,1.21-.65,1.8-.25.7-.49,1.4-.73,2.1-.1.29-.2.54-.57.53-.57,0-1.13,0-1.7,0,.03-.68,6.12-17.26,6.86-18.68Zm5.44,12.57c-.18-1.1-3.6-9.98-4.04-10.48-1.32,3.49-2.63,6.94-3.98,10.48h8.03Z"/>
          <path class="cls-2" d="m359.56,82.84c-.71,0-1.28,0-1.84,0-.36,0-.48-.24-.58-.52-.38-1.08-.76-2.15-1.15-3.22-.25-.68-.26-.69-.97-.69-2.66,0-5.31.01-7.97-.01-.51,0-.77.16-.92.65-.34,1.09-.76,2.15-1.11,3.24-.14.43-.38.59-.81.57-.5-.03-1-.03-1.64-.04,2.34-6.29,4.64-12.44,6.95-18.65.95,0,1.83,0,2.71,0,.41,0,.52.28.63.58.5,1.34.99,2.67,1.49,4.01,1.63,4.38,3.26,8.77,4.89,13.15.1.26.18.53.33.95Zm-8.36-16.6c-.07,0-.14,0-.21,0-1.32,3.47-2.64,6.94-3.96,10.43,1.09.2,7.41.15,8.08-.06-1.31-3.46-2.61-6.91-3.91-10.36Z"/>
          <path class="cls-2" d="m304.81,64.2h2c.02.37.05.7.05,1.03,0,3.26,0,6.51,0,9.77,0,1.22.18,2.39.72,3.49,1,2.03,2.91,3.22,5.02,3.07,2.32-.17,3.85-1.42,4.67-3.57.36-.94.49-1.93.49-2.94,0-3.28,0-6.57,0-9.85v-.98h1.98c.03.26.09.47.09.69,0,3.54.01,7.08,0,10.62,0,1.76-.48,3.38-1.47,4.84-2.9,4.29-10.2,4.21-12.73-1.03-.54-1.12-.86-2.31-.87-3.55-.02-3.71,0-7.42,0-11.14,0-.11.02-.23.05-.45Z"/>
          <path class="cls-2" d="m295.51,66.02v16.73h-2.09v-16.7h-6.21v-1.76c.58-.2,13.55-.25,14.53-.04v1.77h-6.23Z"/>
          <path class="cls-2" d="m363.02,64.21h2.03v16.73h9.53v1.77c-.74.19-10.83.18-11.56-.02v-18.48Z"/>
          <path class="cls-2" d="m176.06,64.24c.21-.04.37-.08.53-.09.45-.01.91,0,1.47,0,.11,1.27.04,2.49.05,3.7.01,1.25,0,2.51,0,3.76,0,1.23,0,2.45,0,3.68v3.76c0,1.22,0,2.44,0,3.71h-2.06v-18.53Z"/>
        </g>
        <rect class="cls-1" x=".44" y=".44" width="407.38" height="109.78" rx="54.89" ry="54.89"/>
      </g>
    </g>
  </g>
</svg>