<?xml version="1.0" encoding="UTF-8"?>
<svg id="Capa_2" data-name="Capa 2" xmlns="http://www.w3.org/2000/svg" xmlns:xlink="http://www.w3.org/1999/xlink" viewBox="0 0 157.18 89.63">
  <defs>
    <style>
      .cls-1 {
        clip-path: url(#clippath);
      }

      .cls-2, .cls-3 {
        fill: #fff;
      }

      .cls-4 {
        clip-path: url(#clippath-1);
      }

      .cls-5 {
        clip-path: url(#clippath-2);
      }

      .cls-3 {
        stroke-width: 0px;
      }
    </style>
    <clipPath id="clippath">
      <path class="cls-3" d="m49.93,41.34c0,4.3.88,8.38,2.48,12.1l7.24-3.13c-1.19-2.75-1.84-5.78-1.84-8.96,0-12.53,10.16-22.68,22.68-22.68,9.29,0,17.3,5.6,20.8,13.61l7.23-3.13c-4.71-10.81-15.49-18.37-28.04-18.37-16.89,0-30.57,13.69-30.57,30.58"/>
    </clipPath>
    <clipPath id="clippath-1">
      <path class="cls-3" d="m41.16,28.61l7.49,2.43c4.35-13.44,16.97-23.16,31.86-23.16,18.49,0,33.47,14.98,33.47,33.47,0,3.64-.59,7.15-1.66,10.43l7.49,2.44c1.33-4.05,2.04-8.37,2.04-12.87C121.84,18.51,103.33,0,80.5,0c-18.39,0-33.98,12-39.35,28.61"/>
    </clipPath>
    <clipPath id="clippath-2">
      <path class="cls-3" d="m61.84,34.7c-1.11,3.09-1.39,6.27-.98,9.32h8c-.49-2.14-.4-4.45.4-6.68,2.21-6.21,9.03-9.44,15.24-7.23,5.76,2.05,8.97,8.09,7.62,13.91h8.01c1.24-9.1-4-18.13-12.99-21.34-2.2-.78-4.44-1.15-6.65-1.15-8.14,0-15.77,5.06-18.66,13.17"/>
    </clipPath>
  </defs>
  <g id="Web_BioFrescura" data-name="Web BioFrescura">
    <g>
      <g>
        <path class="cls-3" d="m13.03,63.94c6.16,0,9.33,3.51,9.33,3.51l-2.82,4.59s-2.79-2.53-6.23-2.53c-4.76,0-7.01,3.51-7.01,7.09s2.43,7.47,7.01,7.47c3.76,0,6.61-3.06,6.61-3.06l3.14,4.45s-3.51,4.17-10.02,4.17c-7.79,0-13.03-5.52-13.03-12.89s5.56-12.79,13.03-12.79"/>
        <polygon class="cls-3" points="26.73 64.36 32.82 64.36 32.82 84 42.97 84 42.97 89.22 26.73 89.22 26.73 64.36"/>
        <polygon class="cls-3" points="46.31 64.36 61.89 64.36 61.89 69.58 52.39 69.58 52.39 74.09 59.97 74.09 59.97 79.31 52.39 79.31 52.39 84 62.37 84 62.37 89.22 46.31 89.22 46.31 64.36"/>
        <path class="cls-3" d="m79.19,84h-7.75l-1.5,5.22h-6.25l8.45-24.86h6.39l8.45,24.86h-6.25l-1.53-5.22Zm-3.89-13.97s-.55,2.71-1.01,4.28l-1.42,4.83h4.9l-1.39-4.83c-.45-1.57-1.01-4.28-1.01-4.28h-.07Z"/>
        <path class="cls-3" d="m89.76,64.36h6.15l6.88,11.61c.98,1.63,2.09,4.25,2.09,4.25h.06s-.28-2.68-.28-4.25v-11.61h6.09v24.86h-6.12l-6.92-11.57c-.98-1.63-2.09-4.25-2.09-4.25h-.07s.29,2.67.29,4.25v11.57h-6.09v-24.86Z"/>
        <polygon class="cls-3" points="116.61 64.36 132.18 64.36 132.18 69.58 122.69 69.58 122.69 74.09 130.27 74.09 130.27 79.31 122.69 79.31 122.69 84 132.67 84 132.67 89.22 116.61 89.22 116.61 64.36"/>
        <path class="cls-3" d="m137.05,64.36h8.65c2.54,0,3.76.18,4.84.59,2.82,1.08,4.58,3.62,4.58,7.23,0,2.64-1.25,5.53-3.72,6.79v.06s.35.45.94,1.5l4.83,8.69h-6.78l-4.41-8.38h-2.85v8.38h-6.08v-24.86Zm8.73,11.26c1.95,0,3.16-1.08,3.16-3.06,0-1.87-.69-2.98-3.75-2.98h-2.05v6.04h2.64Z"/>
      </g>
      <g>
        <path class="cls-2" d="m49.93,41.34c0,4.3.88,8.38,2.48,12.1l7.24-3.13c-1.19-2.75-1.84-5.78-1.84-8.96,0-12.53,10.16-22.68,22.68-22.68,9.29,0,17.3,5.6,20.8,13.61l7.23-3.13c-4.71-10.81-15.49-18.37-28.04-18.37-16.89,0-30.57,13.69-30.57,30.58"/>
        <g class="cls-1">
          <rect class="cls-3" x="49.93" y="10.77" width="58.61" height="42.67"/>
        </g>
      </g>
      <g>
        <path class="cls-2" d="m41.16,28.61l7.49,2.43c4.35-13.44,16.97-23.16,31.86-23.16,18.49,0,33.47,14.98,33.47,33.47,0,3.64-.59,7.15-1.66,10.43l7.49,2.44c1.33-4.05,2.04-8.37,2.04-12.87C121.84,18.51,103.33,0,80.5,0c-18.39,0-33.98,12-39.35,28.61"/>
        <g class="cls-4">
          <rect class="cls-3" x="41.16" width="80.69" height="54.21"/>
        </g>
      </g>
      <g>
        <path class="cls-2" d="m61.84,34.7c-1.11,3.09-1.39,6.27-.98,9.32h8c-.49-2.14-.4-4.45.4-6.68,2.21-6.21,9.03-9.44,15.24-7.23,5.76,2.05,8.97,8.09,7.62,13.91h8.01c1.24-9.1-4-18.13-12.99-21.34-2.2-.78-4.44-1.15-6.65-1.15-8.14,0-15.77,5.06-18.66,13.17"/>
        <g class="cls-5">
          <rect class="cls-3" x="60.45" y="21.53" width="40.93" height="22.49"/>
        </g>
      </g>
    </g>
  </g>
</svg>