<?xml version="1.0" encoding="UTF-8"?>
<svg id="Capa_2" data-name="Capa 2" xmlns="http://www.w3.org/2000/svg" viewBox="0 0 55.96 88.67">
  <defs>
    <style>
      .cls-1 {
        fill: #008700;
        stroke-width: 0px;
      }
    </style>
  </defs>
  <g id="Web_BioFrescura" data-name="Web BioFrescura">
    <path class="cls-1" d="m27.99,0c1.41,2.56,2.74,5.05,4.14,7.5,4.2,7.36,8.44,14.71,12.65,22.07,3.25,5.67,6.3,11.45,8.6,17.59,1.11,2.96,2.05,5.97,2.41,9.11.5,4.34-.18,8.55-1.66,12.64-1.52,4.19-3.82,7.89-6.92,11.12-4.44,4.62-9.72,7.59-16.11,8.42-6.06.8-11.64-.61-16.79-3.83-3.47-2.17-6.33-4.97-8.65-8.34C1.98,70.93-.04,65.04,0,58.5c.02-3.38.91-6.6,2.01-9.76,2.49-7.19,6.12-13.84,9.88-20.43C17.14,19.12,22.35,9.91,27.57.7c.12-.21.25-.42.42-.7ZM11.97,45.14c-1.14.03-1.94.76-2.47,1.91-2.36,5.18-2.85,10.56-1.6,16.09,1.1,4.88,3.4,9.04,7.49,12.07,1.73,1.28,3.62,2.27,5.76,2.66,1.75.32,3.31-1.34,2.98-3.08-.22-1.2-.97-1.9-2.12-2.23-1.81-.53-3.42-1.43-4.73-2.8-3.71-3.85-4.81-8.59-4.55-13.76.12-2.43.75-4.74,1.82-6.95.9-1.86-.39-3.9-2.57-3.91Z"/>
  </g>
</svg>