<?xml version="1.0" encoding="UTF-8"?>
<svg id="Capa_2" data-name="Capa 2" xmlns="http://www.w3.org/2000/svg" viewBox="0 0 58.74 93.07">
  <defs>
    <style>
      .cls-1 {
        fill: #05a711;
        stroke-width: 0px;
      }
    </style>
  </defs>
  <g id="Web_BioFrescura" data-name="Web BioFrescura">
    <path class="cls-1" d="m29.38,0c1.48,2.69,2.88,5.3,4.35,7.87,4.41,7.73,8.86,15.44,13.28,23.16,3.41,5.96,6.61,12.02,9.03,18.46,1.16,3.1,2.15,6.26,2.53,9.57.53,4.56-.18,8.98-1.74,13.27-1.59,4.4-4.01,8.28-7.26,11.67-4.66,4.85-10.21,7.96-16.91,8.84-6.36.84-12.22-.64-17.63-4.02-3.64-2.27-6.64-5.21-9.08-8.75C2.08,74.45-.04,68.27,0,61.41c.02-3.55.95-6.93,2.11-10.25,2.62-7.55,6.42-14.53,10.37-21.44C17.99,20.07,23.46,10.4,28.94.73c.13-.22.26-.44.44-.73Z"/>
  </g>
</svg>