<?xml version="1.0" encoding="UTF-8"?>
<svg id="Capa_2" data-name="Capa 2" xmlns="http://www.w3.org/2000/svg" viewBox="0 0 297.58 215.47">
  <defs>
    <style>
      .cls-1 {
        fill: #fff;
      }

      .cls-1, .cls-2, .cls-3 {
        stroke-width: 0px;
      }

      .cls-2 {
        fill: #ffb819;
      }

      .cls-3 {
        fill: #0033a0;
      }
    </style>
  </defs>
  <g id="Web_BioFrescura" data-name="Web BioFrescura">
    <g>
      <path class="cls-3" d="m242.49,69.48c-.2,2.8-1.11,5.65-2.71,8.44-1.64,2.87-3.81,5.26-6.63,7.29-2.72,1.96-5.71,3.14-9.12,3.6-3.16.43-5.78.12-7.92-.95-2.07-1.04-3.56-2.5-4.56-4.47-1.09-2.15-1.53-4.49-1.34-7.14.2-2.8,1.11-5.65,2.71-8.45,1.61-2.83,3.84-5.28,6.62-7.28,2.73-1.96,5.71-3.14,9.13-3.6.91-.12,1.78-.19,2.61-.19,2.05,0,3.79.37,5.31,1.13,2.07,1.04,3.56,2.5,4.56,4.47,1.09,2.16,1.53,4.5,1.34,7.15m-121.1-9.05c.06-.99.08-1.96.07-2.93,1.76,1.12,3.75,1.91,5.85,2.46-2.08.34-4.08.5-5.92.47m-10.09,25.05c1.46-1.74,2.76-3.54,3.91-5.4l-.58,7.9c-1.04-.91-2.15-1.74-3.33-2.5m179.42-53.86h0c-5.41-9.96-13.57-17.48-24.26-22.37-10.49-4.79-22.86-6.26-36.78-4.36-13.65,1.86-26.14,6.58-37.12,14.04-7.73,5.25-14.41,11.43-19.93,18.44,1.07-2.92,1.72-5.91,1.93-8.96.55-7.71-1.85-14.86-6.76-20.14-4.97-5.33-12.02-8.27-19.86-8.27-1.44,0-2.92.1-4.39.3-16.91,2.3-31.09,17.02-32.31,33.53-2.57-2.23-5.62-4.06-9.12-5.48-4.45-1.8-9.6-2.71-15.32-2.71-2.76,0-5.71.21-8.78.63L11.67,35.2c-1.18.16-2.09,1.13-2.18,2.32L.14,168.81c-.12,1.63,1.3,2.96,2.92,2.74l73.23-9.87c9.21-1.26,17.47-4.17,24.55-8.65,2.83-1.79,5.42-3.76,7.78-5.88.28,1.58,1.05,3.04,2.25,4.17,1.67,1.57,3.92,2.29,6.17,1.97l38.15-5.19c3.5-.48,6.23-3.38,6.49-6.9l1.81-24.17c5.33,8.63,12.97,15.21,22.74,19.58,10.53,4.71,22.92,6.14,36.82,4.24,13.64-1.86,26.1-6.55,37.02-13.94,10.87-7.36,19.68-16.61,26.17-27.49,6.54-10.94,10.29-22.61,11.15-34.66.87-12.21-1.38-23.36-6.68-33.14"/>
      <path class="cls-1" d="m236.26,90.01c3.77-2.72,6.76-6.01,8.98-9.89,2.21-3.88,3.46-7.82,3.74-11.82.29-4-.42-7.68-2.11-11.03-1.7-3.35-4.27-5.89-7.73-7.62-3.46-1.73-7.54-2.28-12.25-1.64-4.71.64-8.95,2.32-12.72,5.04-3.78,2.72-6.77,6.02-8.98,9.89-2.21,3.88-3.46,7.82-3.74,11.82-.29,4,.42,7.68,2.11,11.03,1.69,3.35,4.27,5.89,7.73,7.62,3.46,1.73,7.54,2.28,12.25,1.64,4.71-.64,8.95-2.32,12.72-5.03m-48.01,38.25c-9.25-4.13-16.16-10.46-20.73-18.98-4.56-8.52-6.46-18.22-5.68-29.12.78-10.9,4.11-21.29,9.99-31.17,5.88-9.88,13.84-18.24,23.87-25.05,10.04-6.82,21.31-11.08,33.83-12.78,12.51-1.7,23.36-.46,32.56,3.74,9.19,4.2,16.1,10.55,20.72,19.06,4.62,8.51,6.55,18.16,5.78,28.94-.78,10.9-4.14,21.32-10.08,31.27-5.94,9.95-13.9,18.3-23.87,25.05-9.98,6.76-21.22,10.98-33.73,12.69-12.51,1.7-23.4.49-32.65-3.65"/>
      <path class="cls-1" d="m166.04,26.63c.92-12.89-9.12-21.87-22.42-20.06-13.31,1.81-24.84,13.73-25.76,26.62-.92,12.89,9.12,21.87,22.42,20.06,13.31-1.81,24.84-13.73,25.76-26.62"/>
      <path class="cls-1" d="m120.88,65.63l-5.74,78.69,38.06-5.18,6.74-90.21c-8.8,12.5-28.37,18.75-39.06,16.7"/>
      <path class="cls-2" d="m163.08,26.63c-.92,12.89-12.46,24.8-25.76,26.62-.65.09-1.29.14-1.92.18,1.56.1,3.2.05,4.88-.18,13.31-1.81,24.84-13.73,25.76-26.62.88-12.26-8.17-20.97-20.5-20.24,10.79.71,18.35,8.98,17.54,20.24"/>
      <path class="cls-2" d="m218.36,95.25c-2.59-.17-4.94-.78-7.06-1.84-3.46-1.73-6.03-4.27-7.73-7.62-1.7-3.35-2.4-7.02-2.11-11.03.29-4,1.53-7.94,3.74-11.82,2.21-3.88,5.2-7.18,8.98-9.89,3.77-2.72,8.01-4.39,12.72-5.04.76-.1,1.5-.16,2.22-.21-1.63-.11-3.36-.04-5.18.21-4.71.64-8.95,2.32-12.72,5.04-3.78,2.72-6.77,6.02-8.98,9.89-2.21,3.88-3.46,7.82-3.74,11.82-.29,4,.41,7.68,2.11,11.03,1.69,3.35,4.27,5.89,7.73,7.62,2.9,1.45,6.24,2.06,10.02,1.84"/>
      <path class="cls-2" d="m282.82,33.96c-4.62-8.51-11.53-14.86-20.72-19.06-6.95-3.18-14.86-4.66-23.71-4.46,7.66.16,14.59,1.64,20.75,4.46,9.19,4.2,16.1,10.56,20.72,19.06,4.62,8.51,6.54,18.16,5.77,28.94-.78,10.9-4.14,21.32-10.08,31.27-5.94,9.95-13.9,18.3-23.87,25.05-9.98,6.76-21.22,10.98-33.73,12.69-3.07.42-6.05.66-8.93.73,3.79.08,7.75-.16,11.89-.73,12.51-1.7,23.76-5.93,33.73-12.69,9.97-6.75,17.93-15.1,23.87-25.05,5.94-9.95,9.3-20.37,10.08-31.27.77-10.78-1.15-20.43-5.77-28.94"/>
      <path class="cls-2" d="m156.7,52.79l-6.45,86.35-35.07,4.77-.03.41,38.06-5.18,6.74-90.21c-.96,1.36-2.05,2.65-3.25,3.86"/>
      <path class="cls-1" d="m109.71,96.19c3.07,4.67,4.34,10.62,3.83,17.86-.44,6.19-2.42,12.12-5.93,17.8-3.51,5.68-8.42,10.51-14.73,14.49-6.31,3.98-13.62,6.54-21.94,7.67l-63.81,8.69L15.89,40.13l58.39-7.95c8.32-1.13,15.26-.57,20.82,1.67,5.57,2.25,9.62,5.69,12.15,10.31,2.53,4.63,3.59,9.91,3.16,15.87-.73,10.27-5.55,19.13-14.43,26.58,6.08,1.72,10.66,4.91,13.73,9.57"/>
      <path class="cls-2" d="m110.22,96.19c-3.07-4.67-7.64-7.86-13.72-9.57,8.88-7.45,13.7-16.31,14.43-26.58.43-5.95-.63-11.24-3.16-15.87-2.53-4.62-6.58-8.06-12.15-10.31-4.12-1.66-9-2.39-14.62-2.21,4.33.13,8.18.86,11.52,2.21,5.57,2.25,9.62,5.69,12.15,10.31,2.53,4.63,3.59,9.91,3.16,15.87-.74,10.27-5.55,19.13-14.43,26.58,6.08,1.72,10.66,4.91,13.73,9.57,3.07,4.67,4.34,10.62,3.83,17.86-.44,6.19-2.42,12.12-5.93,17.8-3.51,5.68-8.42,10.51-14.73,14.49-6.31,3.98-13.62,6.54-21.94,7.67l-61.19,8.33-.03.43,64.32-8.76c8.32-1.13,15.63-3.69,21.94-7.67,6.31-3.98,11.22-8.81,14.73-14.49,3.51-5.68,5.48-11.61,5.93-17.8.52-7.24-.76-13.19-3.83-17.86"/>
      <path class="cls-3" d="m57.03,77.57c5.75-.74,12.26-2.16,12.81-9.76.59-8.19-6.78-6.66-12.53-5.92l-2.73.35-1.15,15.8,3.59-.47Z"/>
      <path class="cls-3" d="m49.73,125.15l4.46-.58c6.46-.83,15.82-2.18,16.48-11.25.67-9.21-9.4-7.77-15.72-6.96l-3.88.5-1.33,18.28Z"/>
      <path class="cls-2" d="m54.58,62.23l2.73-.35c.19-.02.4-.05.59-.08-1.22.13-2.45.31-3.62.46l-2.73.35-1.15,15.8,3.03-.39,1.15-15.79Z"/>
      <path class="cls-2" d="m51.06,106.87l3.38-.43c-.88.1-1.73.21-2.52.31l-3.88.5-1.33,18.28,3.03-.39,1.33-18.27Z"/>
      <path class="cls-3" d="m211.66,181.14h0l-8.75-26.17c-.66-1.98-2.47-3.26-4.46-2.99l-8.55,1.18c-1.41.19-2.63,1.15-3.26,2.56l-2.75,6.17c-.5-.99-1.16-1.89-1.95-2.69-2.76-2.78-6.9-3.8-12.41-3.04l-12.61,1.74c-.35.05-.7.15-1.03.29-.36-.06-.7-.06-1.06,0l-8.77,1.21c-1.82.25-3.29,1.8-3.62,3.76-.22-.52-.52-1-.91-1.41-.91-.96-2.18-1.43-3.43-1.25l-8.77,1.21c-1.48.2-2.72,1.25-3.31,2.69-2.7-1.48-5.91-2-9.46-1.51-4.55.63-8.81,2.88-12.16,6.4-3.68-2.64-8.15-3.52-13.96-2.72-3.54.49-6.68,1.76-9.21,3.71-.05-.06-.11-.13-.17-.19-.91-.96-2.14-1.43-3.43-1.25l-22.01,3.04c-1.63.23-2.97,1.48-3.48,3.14-2.59-1.42-5.92-1.85-10.07-1.28l-12.61,1.74c-.35.05-.69.15-1.02.29-.36-.06-.7-.05-1.06,0l-21.6,2.98c-1.97.27-3.51,2.05-3.68,4.22L.02,210.45c-.11,1.4.36,2.76,1.27,3.73.77.82,1.79,1.28,2.86,1.29.19,0,.38,0,.57-.04l8.62-1.19c1.97-.27,3.51-2.05,3.68-4.22l.4-5.24,6.52-.9-.25,3.3c-.11,1.4.36,2.76,1.27,3.73.91.96,2.14,1.43,3.43,1.25l8.63-1.19c1.35-.19,2.5-1.08,3.14-2.33.9,1.05,2.25,1.59,3.56,1.4l9.84-1.36c.15-.02.3-.06.44-.1.18,0,.35-.01.53-.04l22.19-3.06c1.25-.17,2.33-.95,2.99-2.05,3.07.99,6.64,1.23,10.44.7,5.37-.74,9.88-3.23,12.69-6.95,3.14,2.92,7.56,4.24,12.2,3.59,5.16-.71,9.49-3.09,12.91-7.08,2.89,3.08,7.2,4.26,12.92,3.48,4.45-.61,8.12-2.16,10.95-4.61.16.27.36.52.57.75.91.96,2.19,1.43,3.43,1.25l8.63-1.19c1.35-.19,2.5-1.08,3.14-2.33.9,1.05,2.25,1.59,3.56,1.4l15.97-2.2c1.44-.2,2.71-1.22,3.31-2.68l.63-1.52,3.3-.45c.65,2.01,2.52,3.3,4.47,3.03l9.36-1.29c1.28-.18,2.4-.98,3.08-2.19.67-1.22.8-2.68.36-4.02"/>
      <polygon class="cls-1" points="26.32 187.29 26.92 179.44 5.32 182.42 3.21 209.9 11.84 208.71 12.53 199.72 24.58 198.06 25.13 190.91 13.07 192.57 13.34 189.08 26.32 187.29"/>
      <path class="cls-1" d="m43.86,187.39c-.13,1.69-1.46,2.84-3.52,3.13l-3.72.51.41-5.38,3.76-.52c1.99-.28,3.21.41,3.08,2.18v.08Zm-2.26-9.98l-12.61,1.74-2.11,27.48,8.62-1.19.6-7.85,1.84-.25,4.26,7.18,9.84-1.36-5.29-8.51c3.26-2.04,5.43-5.1,5.73-9.1v-.08c.22-2.83-.43-4.76-1.85-6.19-1.66-1.67-4.48-2.49-9.05-1.86"/>
      <polygon class="cls-1" points="62.09 194.32 62.32 191.33 74.93 189.59 75.44 182.96 62.83 184.7 63.05 181.91 76.57 180.05 77.15 172.51 55.15 175.55 53.04 203.02 75.23 199.96 75.81 192.42 62.09 194.32"/>
      <path class="cls-1" d="m90.42,180.31c-2.69-.17-3.35-.55-3.29-1.29v-.08c.06-.67.68-1.22,1.97-1.4,2.39-.33,5.24.09,7.53,1.64l4.68-6.78c-2.79-2.1-6.38-2.85-11.36-2.16-7.11.98-11.26,5.55-11.66,10.77v.08c-.45,5.81,4.5,6.87,10.19,7.33,2.72.21,3.5.53,3.44,1.31v.08c-.06.75-.76,1.27-2.31,1.48-3.02.42-6.16-.08-8.78-1.97l-5.06,6.48c3.05,2.61,7.64,3.53,12.88,2.81,6.93-.96,11.66-5.1,12.1-10.87v-.08c.43-5.54-3.83-6.97-10.33-7.35"/>
      <path class="cls-1" d="m110.04,181.49c.25-3.3,2.38-6.27,5.29-6.67,2.36-.32,3.62.86,4.43,2.69l7.45-5.42c-1.85-3.9-5.46-6.32-11.14-5.53-7.7,1.06-14.18,8.02-14.81,16.22v.08c-.66,8.52,5.13,13.39,12.28,12.4,6.42-.88,10.28-4.72,12.77-9.1l-6.79-3.3c-1.23,2.19-2.7,3.79-5.13,4.13-2.84.39-4.64-1.85-4.36-5.42v-.08Z"/>
      <path class="cls-1" d="m145.58,163.07l-1.17,15.23c-.26,3.34-2.02,4.9-4.34,5.22-2.32.32-3.87-.9-3.61-4.32l1.15-15.03-8.77,1.21-1.16,15.15c-.7,9.11,3.99,12.19,11.69,11.12,7.7-1.06,13.11-5.46,13.83-14.84l1.15-14.96-8.77,1.21Z"/>
      <path class="cls-1" d="m189.92,174.04l2.87-7,1.85,6.35-4.72.65Zm-18.61-4.23c-.13,1.69-1.46,2.84-3.52,3.13l-3.72.51.41-5.38,3.76-.52c1.99-.28,3.21.41,3.08,2.18v.08Zm26.66-14.17l-8.55,1.18-11.6,26.03-3.6-5.79c3.26-2.04,5.42-5.1,5.73-9.1v-.08c.22-2.83-.43-4.76-1.85-6.19-1.66-1.67-4.48-2.49-9.05-1.86l-12.61,1.74-2.11,27.48,8.63-1.19.6-7.85,1.84-.25,4.26,7.18,6.75-.93h0s9.21-1.27,9.21-1.27l1.61-3.87,9.03-1.25,1.08,3.5,9.36-1.29-8.75-26.17Z"/>
      <path class="cls-1" d="m212.67,149.93c-3.45,0-6.27,2.81-6.27,6.27s2.81,6.27,6.27,6.27,6.26-2.81,6.26-6.27-2.81-6.27-6.26-6.27"/>
      <path class="cls-3" d="m211.75,155.94h1.27c.52,0,.8-.22.8-.75s-.28-.73-.8-.73h-1.27v1.49Zm-1.16-2.39h2.85c.95,0,1.55.66,1.55,1.46,0,.62-.25,1.09-.84,1.33h0c.57.16.73.72.77,1.25.02.33.02.95.22,1.25h-1.16c-.14-.33-.13-.84-.19-1.27-.08-.56-.3-.8-.88-.8h-1.16v2.07h-1.16v-5.29Z"/>
      <path class="cls-3" d="m212.67,152.04c-2.29,0-4.15,1.86-4.15,4.15s1.86,4.15,4.15,4.15,4.15-1.86,4.15-4.15-1.86-4.15-4.15-4.15m0,9.1c-2.73,0-4.95-2.22-4.95-4.95s2.22-4.95,4.95-4.95,4.95,2.22,4.95,4.95-2.22,4.95-4.95,4.95"/>
    </g>
  </g>
</svg>