<?xml version="1.0" encoding="UTF-8"?>
<svg id="Capa_2" data-name="Capa 2" xmlns="http://www.w3.org/2000/svg" viewBox="0 0 17.13 17.12">
  <defs>
    <style>
      .cls-1 {
        fill: #00953b;
        stroke-width: 0px;
      }
    </style>
  </defs>
  <g id="Web_BioFrescura" data-name="Web BioFrescura">
    <g>
      <path class="cls-1" d="m16.83,8.51c-.16,0-.3-.13-.3-.3,0-4.2-3.32-7.62-7.41-7.62-.16,0-.3-.13-.3-.3s.13-.3.3-.3c4.41,0,8,3.69,8,8.22,0,.16-.13.29-.3.29h0Z"/>
      <path class="cls-1" d="m13.61,8.51c-.16,0-.3-.13-.3-.3.03-2.35-1.85-4.28-4.2-4.32-.16,0-.3-.13-.3-.3s.13-.3.3-.3c2.67.04,4.81,2.23,4.78,4.91,0,.08-.03.16-.08.21-.06.06-.13.09-.21.09h0Z"/>
      <path class="cls-1" d="m15.36,14.71c-.38.76-.91,1.42-1.57,1.95-.47.38-1.08.53-1.68.43-2.68-.45-5.31-1.63-7.95-4.22C1.65,10.18.47,7.43.03,4.68c-.1-.61.05-1.23.42-1.73.51-.68,1.16-1.23,1.91-1.62.15-.15.35-.24.56-.24s.41.09.56.24l2.6,2.7c.33.35.33.9,0,1.25l-1.84,2c.78,1.72,3.67,4.69,5.33,5.49l1.95-1.9c.16-.16.38-.25.61-.25s.45.09.61.25l2.63,2.66c.16.16.24.37.24.59,0,.22-.09.43-.25.59h0Z"/>
    </g>
  </g>
</svg>